<svg width="186" height="195" viewBox="0 0 186 195" fill="none" xmlns="http://www.w3.org/2000/svg">
    <path fill-rule="evenodd" clip-rule="evenodd" d="M36.721 14.5477C38.8945 14.2822 41.2143 14.3759 43.2356 15.2338C47.5337 17.0584 48.7555 22.1361 48.6965 26.2632C48.633 30.7054 47.6897 35.5573 51.0669 39.1365C52.6194 40.7819 54.5505 42.0412 56.0749 43.7169C57.7038 45.5076 58.9819 47.5566 59.9282 49.7568C61.6658 53.7982 62.5186 58.5508 60.9297 62.7902C59.5307 66.5228 56.011 69.8918 56.7715 74.1361C57.5648 78.5637 62.0287 81.9487 64.8196 85.2465C67.9781 88.9787 70.8862 93.7487 71.3639 98.6431C71.822 103.334 69.7803 108.077 66.6469 111.623C60.3864 118.708 50.9759 122.181 41.4872 122.159C37.4586 122.15 32.8974 121.968 29.4207 119.803C28.3463 119.134 27.7794 118.383 27.1406 117.34C26.5679 116.404 25.8114 115.795 24.9357 115.133C23.0118 113.679 21.6224 111.718 20.7357 109.524C17.2926 101.001 20.0445 90.457 24.8642 82.8886C26.0062 81.0955 26.9412 79.3699 26.3864 77.2326C25.8074 75.0016 24.3845 72.9893 23.1259 71.0715C21.8822 69.1761 20.4624 67.3679 19.4903 65.3186C18.4722 63.1718 18.1856 60.9237 18.3654 58.5742C18.7035 54.1608 20.6087 50.0881 23.306 46.5387C25.904 43.1199 28.9545 39.8487 28.9614 35.369C28.9689 30.6212 25.7948 26.3977 27.147 21.5707C27.7069 19.5719 28.8315 17.5211 30.6439 16.3228C32.3819 15.1735 34.6769 14.7975 36.721 14.5477Z" fill="#DDE3E9"/>
    <path fill-rule="evenodd" clip-rule="evenodd" d="M35.3008 22.1377C35.3415 21.5001 36.0979 21.1177 36.6934 21.284C37.4771 21.5032 37.462 22.2355 37.4414 22.8879C37.3779 24.8934 37.6682 26.8424 38.1503 28.7883C39.1522 32.834 41.004 36.5614 42.471 40.4477C43.9368 44.3306 44.6249 48.3397 43.765 52.4484C42.9544 56.3223 41.6809 60.0959 40.8513 63.9747C40.1201 67.3934 39.342 70.9986 40.4556 74.4086C41.5271 77.691 43.896 80.3642 45.6019 83.3305C49.1332 89.4709 50.6998 96.283 50.9093 103.293C51.0064 106.549 50.919 109.834 50.1638 113.026C49.7291 114.865 49.145 117.349 47.5697 118.619C46.8432 119.204 45.6008 119.406 44.9894 118.539C44.4153 117.726 44.9189 116.468 45.1012 115.601C45.8904 111.851 46.0491 108.017 45.8602 104.209C45.6773 100.519 45.2414 96.8365 44.0803 93.3132C43.0027 90.0435 41.3656 87.1067 39.4388 84.2464C37.4754 81.3316 35.4342 78.4106 34.623 74.9568C33.7987 71.449 34.4683 67.8797 35.3637 64.4389C36.3106 60.7995 37.5509 57.2645 38.8332 53.7237C40.0828 50.2735 40.5257 47.0089 39.8359 43.3978C38.4732 36.2636 34.8255 29.5672 35.3008 22.1377Z" fill="#C5CFD6"/>
    <path fill-rule="evenodd" clip-rule="evenodd" d="M94.1089 23.2045C96.7986 24.0211 99.4699 25.3388 101.387 27.4049C105.464 31.7986 104.213 38.4392 101.963 43.2894C99.5402 48.5098 95.8692 53.7571 97.9386 59.7468C98.8897 62.5004 100.489 64.9943 101.391 67.7691C102.355 70.7342 102.772 73.8222 102.719 76.9165C102.62 82.5999 101.109 88.6641 97.0042 92.8512C93.3904 96.5377 87.4813 98.6909 86.13 104.106C84.7202 109.755 88.1668 116.08 89.6971 121.432C91.429 127.489 92.3187 134.643 90.2921 140.68C88.3501 146.465 83.448 151.013 77.8988 153.576C66.8111 158.698 53.9377 157.91 42.8197 152.948C38.0995 150.842 32.8458 148.254 29.9123 143.885C29.0058 142.534 28.7377 141.352 28.5401 139.785C28.363 138.38 27.7974 137.267 27.1203 136.028C25.6326 133.307 25.0391 130.266 25.1589 127.21C25.6253 115.339 34.4262 104.301 44.0796 97.8579C46.3669 96.3315 48.3756 94.7772 48.8545 91.961C49.3547 89.0213 48.7494 85.9012 48.2869 82.9784C47.83 80.0899 47.1204 77.2129 47.0634 74.2836C47.0041 71.2151 47.8561 68.4074 49.3089 65.7224C52.0382 60.6788 56.4255 56.8534 61.4652 54.0591C66.3195 51.3675 71.6265 49.0858 74.0023 43.7916C76.5206 38.1806 75.03 31.5345 79.1675 26.5294C80.8807 24.4568 83.2837 22.6165 86.0428 22.1422C88.6888 21.6872 91.5793 22.4364 94.1089 23.2045Z" fill="#DDE3E9"/>
    <path fill-rule="evenodd" clip-rule="evenodd" d="M88.6147 32.4829C88.9963 31.7492 90.0811 31.6927 90.6902 32.2018C91.4919 32.8721 91.0907 33.7315 90.7248 34.4933C89.6003 36.835 88.919 39.2952 88.4636 41.8523C87.5163 47.1685 87.7295 52.5532 87.4096 57.9243C87.0899 63.2909 85.7948 68.3992 82.6375 72.8142C79.6608 76.977 76.1954 80.7783 73.1939 84.937C70.5484 88.6023 67.7505 92.4639 67.2666 97.0858C66.8005 101.534 68.1705 105.942 68.6116 110.349C69.5249 119.471 67.7891 128.359 64.3627 136.771C62.7714 140.677 60.9486 144.522 58.3934 147.907C56.9224 149.856 54.9382 152.492 52.4313 153.169C51.2754 153.482 49.7166 153.07 49.4556 151.723C49.2101 150.46 50.4581 149.233 51.125 148.303C54.0123 144.274 56.2055 139.818 57.9792 135.209C59.6975 130.744 61.1167 126.154 61.6043 121.373C62.0566 116.936 61.6804 112.6 60.9254 108.203C60.1561 103.722 59.2992 99.1931 60.1594 94.6779C61.0327 90.0918 63.6851 86.2159 66.5341 82.6104C69.5474 78.7968 72.8491 75.2607 76.2028 71.7396C79.471 68.3086 81.6986 64.6748 82.7832 60.0369C84.9261 50.874 84.168 41.0321 88.6147 32.4829Z" fill="#C5CFD6"/>
    <path fill-rule="evenodd" clip-rule="evenodd" d="M10.9597 56.9066C15.4321 56.9066 19.364 59.2772 22.0733 62.6412C25.2448 66.5793 25.8854 71.3884 27.1732 76.0818C27.8141 78.4176 28.9163 80.7362 30.8478 82.3232C32.6046 83.7664 34.8348 84.0552 36.9376 84.7603C41.1402 86.1694 44.5337 89.5639 45.8738 93.7058C47.5088 98.7582 45.7771 103.853 46.0753 108.974C46.349 113.676 50.9853 116.609 54.7155 118.864C58.3937 121.086 61.7073 123.167 62.8151 127.497C63.9899 132.09 64.384 137.216 62.7569 141.753C60.0478 149.307 52.1196 152.633 44.4588 153.149C37.5064 153.617 28.7646 152.882 23.5435 147.836C20.4192 144.816 19.2877 140.592 19.4281 136.39C19.5153 133.777 20.0329 131.188 20.7022 128.663C21.1765 126.873 21.8173 125.091 21.9999 123.242C22.4852 118.322 17.9377 117.377 14.0669 116.026C9.14809 114.309 5.70453 111.066 3.30999 106.548C1.08002 102.342 0.144368 97.62 1.48117 92.9886C2.16392 90.6238 3.40226 88.4782 5.0817 86.6533C5.82099 85.8501 6.86298 85.1802 7.53025 84.3363C8.15308 83.5482 8.01749 82.5271 7.80284 81.604C6.81037 77.3404 3.71817 73.8099 2.61233 69.5539C1.61395 65.7123 2.20414 60.9312 5.71634 58.4529C7.23375 57.382 9.10504 56.9184 10.9597 56.9066Z" fill="#C5CFD6"/>
    <path fill-rule="evenodd" clip-rule="evenodd" d="M17.0539 68.0158C21.794 73.0651 23.0825 79.9158 23.4606 86.5558C23.6724 90.2792 23.452 94.2065 24.5459 97.818C25.4819 100.909 27.6761 103.272 29.938 105.505C34.4909 110.001 39.5685 114.571 40.9001 121.077C41.6815 124.895 41.1541 128.839 42.2338 132.615C43.2155 136.048 44.9441 139.42 47.0465 142.318C48.7393 144.653 50.9448 146.439 52.7952 148.615C53.3598 149.279 54.1685 150.257 53.9355 151.195C53.6629 152.293 52.2642 152.64 51.2718 152.468C48.9581 152.066 47.0105 149.856 45.4977 148.25C43.2856 145.902 41.4058 143.376 39.8779 140.542C38.1818 137.395 36.816 134.056 36.2325 130.525C35.627 126.863 35.9283 123.046 34.5456 119.53C32.2187 113.616 26.575 110.126 22.4945 105.516C17.4105 99.7715 18.1687 92.6223 18.6894 85.5564C18.9755 81.6734 19.2599 77.2883 17.2978 73.743C16.5487 72.3896 14.8788 71.1278 14.5568 69.5895C14.2618 68.1801 15.8717 66.7559 17.0539 68.0158Z" fill="#AFB9C5"/>
    <path fill-rule="evenodd" clip-rule="evenodd" d="M22.1092 150.992C22.1092 179.869 26.8217 195 51.7004 195C76.5791 195 81.2916 179.869 81.2916 150.992H22.1092Z" fill="#89C5CC"/>
    <rect x="124.541" y="109.261" width="28.8327" height="6.82879" rx="2" fill="#AFB9C5"/>
    <path fill-rule="evenodd" clip-rule="evenodd" d="M137.604 53.8716C137.604 53.8716 137.015 71.4202 132.128 87.2568L137.604 53.8716ZM141.069 53.8716C141.462 65.5707 143.287 76.6991 146.545 87.2568L151.477 87.2568C157.972 87.2568 163.237 92.5222 163.237 99.0175C163.237 105.513 157.972 110.778 151.477 110.778H126.438C119.943 110.778 114.677 105.513 114.677 99.0175C114.677 92.5222 119.943 87.2568 126.438 87.2568H132.128M141.069 53.8716L139.716 53.8716L141.069 53.8716Z" fill="#DDE3E9"/>
    <path fill-rule="evenodd" clip-rule="evenodd" d="M112.114 1.27366C112.114 1.27366 125.156 0 138.198 0C151.241 0 164.283 1.27366 164.283 1.27366L167.79 61.5601C167.79 61.5601 152.994 62.9767 138.198 62.9767C123.403 62.9767 108.607 61.5601 108.607 61.5601L112.114 1.27366Z" fill="#C5CFD6"/>
    <path fill-rule="evenodd" clip-rule="evenodd" d="M91.1556 195V132.782V116.089H107.089L186 116.089V132.782V195H170.066V132.782H107.089V195H91.1556Z" fill="#F2F2F2"/>
</svg> 